<?xml version="1.0" encoding="UTF-8" standalone="no"?>
<!DOCTYPE svg PUBLIC "-//W3C//DTD SVG 1.1//EN" "http://www.w3.org/Graphics/SVG/1.1/DTD/svg11.dtd">
<svg xmlns="http://www.w3.org/2000/svg" xmlns:xlink="http://www.w3.org/1999/xlink" version="1.1" width="4581.583pt" height="5389.555pt" viewBox="225 0 4581.583 5389.555">
<g enable-background="new">
<g id="Layer-1" data-name="Crown">
<path transform="matrix(2.7777777,0,0,-2.7777777,0,5389.555)" d="M 589.061 1386.17 L 117.81299 1386.17 L 117.81299 1406.0131 L 589.061 1406.0131 Z " fill="#231f20"/>
<clipPath id="cp0">
<path transform="matrix(2.7777777,0,0,-2.7777777,0,5389.555)" d="M 0 1940.242 L 1649.37 1940.242 L 1649.37 0 L 0 0 Z "/>
</clipPath>
<g clip-path="url(#cp0)">
<path transform="matrix(2.7777777,0,0,-2.7777777,244.57749,377.8751)" d="M 0 0 C 0 16.438 13.325 29.764 29.764 29.764 C 46.202 29.764 59.528 16.438 59.528 0 C 59.528 -16.438 46.202 -29.764 29.764 -29.764 C 13.325 -29.764 0 -16.438 0 0 " fill="#231f20"/>
<path transform="matrix(2.7777777,0,0,-2.7777777,899.0914,377.8751)" d="M 0 0 C 0 16.438 13.325 29.764 29.764 29.764 C 46.201 29.764 59.527 16.438 59.527 0 C 59.527 -16.438 46.201 -29.764 29.764 -29.764 C 13.325 -29.764 0 -16.438 0 0 " fill="#231f20"/>
<path transform="matrix(2.7777777,0,0,-2.7777777,1553.6024,377.8751)" d="M 0 0 C 0 16.438 13.325 29.764 29.764 29.764 C 46.201 29.764 59.527 16.438 59.527 0 C 59.527 -16.438 46.201 -29.764 29.764 -29.764 C 13.325 -29.764 0 -16.438 0 0 " fill="#231f20"/>
<path transform="matrix(2.7777777,0,0,-2.7777777,1553.6024,1511.5231)" d="M 0 0 C 0 16.438 13.325 29.764 29.764 29.764 C 46.201 29.764 59.527 16.438 59.527 0 C 59.527 -16.438 46.201 -29.764 29.764 -29.764 C 13.325 -29.764 0 -16.438 0 0 " fill="#231f20"/>
<path transform="matrix(2.7777777,0,0,-2.7777777,244.57749,1511.5231)" d="M 0 0 C 0 16.438 13.325 29.764 29.764 29.764 C 46.202 29.764 59.528 16.438 59.528 0 C 59.528 -16.438 46.202 -29.764 29.764 -29.764 C 13.325 -29.764 0 -16.438 0 0 " fill="#231f20"/>
<path transform="matrix(2.7777777,0,0,-2.7777777,680.9191,755.4982)" d="M 0 0 C 0 16.438 13.325 29.764 29.764 29.764 C 46.202 29.764 59.527 16.438 59.527 0 C 59.527 -16.438 46.202 -29.765 29.764 -29.765 C 13.325 -29.765 0 -16.438 0 0 " fill="#231f20"/>
<path transform="matrix(2.7777777,0,0,-2.7777777,1117.261,755.4982)" d="M 0 0 C 0 16.438 13.325 29.764 29.764 29.764 C 46.202 29.764 59.527 16.438 59.527 0 C 59.527 -16.438 46.202 -29.765 29.764 -29.765 C 13.325 -29.765 0 -16.438 0 0 " fill="#231f20"/>
</g>
<g id="Layer-1" data-name="Type">
</g>
<clipPath id="cp1">
<path transform="matrix(2.7777777,0,0,-2.7777777,0,5389.555)" d="M 0 1940.242 L 1649.37 1940.242 L 1649.37 0 L 0 0 Z "/>
</clipPath>
<g clip-path="url(#cp1)">
<path transform="matrix(2.7777777,0,0,-2.7777777,489.9661,2098.4114)" d="M 0 0 C 14.764 0 21.668 7.381 21.668 26.192 C 21.668 44.766 15.24 50.004 1.668 50.004 L -11.906 50.004 L -11.906 0 Z M -46.193 -95.483 L -46.193 75.006 L 8.334 75.006 C 42.623 75.006 57.623 59.528 57.623 28.812 C 57.623 5.715 46.908 -9.763 28.098 -16.43 L 28.336 -18.573 C 38.098 -24.049 43.813 -36.193 47.623 -56.195 C 52.146 -79.292 54.766 -86.435 59.529 -91.673 L 59.529 -95.483 L 22.383 -95.483 C 19.049 -90.007 16.906 -81.197 15.24 -70.481 C 13.334 -59.528 11.43 -46.432 9.525 -37.622 C 7.619 -27.145 5.477 -24.049 -1.904 -24.049 L -11.906 -24.049 L -11.906 -95.483 Z " fill="#231f20"/>
<path transform="matrix(2.7777777,0,0,-2.7777777,805.4608,2310.0677)" d="M 0 0 C 10 0 14.287 10.239 14.287 30.955 L 14.287 56.671 C 14.287 77.863 10 87.864 0 87.864 C -10 87.864 -14.525 77.863 -14.525 56.671 L -14.525 30.955 C -14.525 10.239 -10 0 0 0 M -.477 -21.668 C -33.574 -21.668 -48.574 5.953 -48.574 39.051 L -48.574 49.051 C -48.574 82.149 -33.574 109.532 0 109.532 C 33.574 109.532 48.338 82.149 48.338 49.051 L 48.338 39.051 C 48.338 5.953 33.574 -21.668 -.477 -21.668 " fill="#231f20"/>
<path transform="matrix(2.7777777,0,0,-2.7777777,972.80026,2413.2496)" d="M 0 0 C 5 0 10.715 .476 15 1.667 C 19.287 3.333 23.572 6.429 24.764 13.096 L 25.717 17.144 L -10 144.296 L 22.621 144.296 L 36.193 81.435 L 39.766 60.004 L 40.479 60.004 L 45.004 81.435 L 59.527 144.296 L 86.197 144.296 L 49.289 7.381 C 45.004 -8.096 40.479 -16.192 27.383 -21.43 C 21.668 -23.812 11.668 -24.288 0 -24.288 Z " fill="#231f20"/>
<path transform="matrix(2.7777777,0,0,-2.7777777,1361.0488,2255.8306)" d="M 0 0 L 0 22.383 C -3.334 20.478 -6.191 18.811 -11.906 15.239 C -18.098 10.953 -21.906 6.191 -21.906 -5.715 C -21.906 -16.43 -18.572 -20.716 -11.906 -20.716 C -3.334 -20.716 0 -11.43 0 0 M -52.623 -9.524 C -52.623 13.334 -37.621 21.192 -25.002 28.097 C -15.953 33.336 -6.668 37.622 0 41.194 L 0 54.052 C 0 64.052 -3.572 68.815 -11.43 68.815 C -20.717 68.815 -24.287 60.719 -25.717 46.67 L -49.766 49.527 C -48.1 77.149 -30.955 90.007 -6.906 90.007 C 19.764 90.007 32.145 78.578 32.145 53.813 L 32.145 -6.191 C 32.145 -13.334 33.098 -17.382 35.478 -19.287 C 37.383 -21.192 40.24 -21.668 43.336 -21.668 L 43.336 -37.622 C 40.717 -39.765 32.383 -41.194 27.383 -41.194 C 14.287 -41.194 5 -34.526 4.047 -17.382 L 2.857 -17.382 C -1.904 -32.86 -11.191 -41.194 -25.479 -41.194 C -42.146 -41.194 -52.623 -30.24 -52.623 -9.524 " fill="#231f20"/>
<path transform="matrix(2.7777777,0,0,-2.7777777,0,5389.555)" d="M 545.931 1266.009 L 578.314 1266.009 L 578.314 1089.3291 L 545.931 1089.3291 Z " fill="#231f20"/>
<path transform="matrix(2.7777777,0,0,-2.7777777,345.11473,2810.0963)" d="M 0 0 L 0 15.716 C 0 67.862 21.668 96.912 60.004 96.912 C 92.863 96.912 109.531 76.435 112.15 36.432 L 81.672 30.717 C 81.91 60.243 72.863 70.482 60.957 70.482 C 46.432 70.482 36.67 54.29 36.67 16.43 L 36.67 -3.333 C 36.67 -37.86 46.908 -54.766 61.195 -54.766 C 75.482 -54.766 81.672 -43.099 82.625 -14.763 L 112.627 -19.287 C 109.77 -58.576 92.625 -80.958 59.291 -80.958 C 21.191 -80.958 0 -54.528 0 0 " fill="#231f20"/>
<path transform="matrix(2.7777777,0,0,-2.7777777,825.29586,2971.4844)" d="M 0 0 C 10 0 14.287 10.239 14.287 30.955 L 14.287 56.671 C 14.287 77.863 10 87.864 0 87.864 C -10 87.864 -14.525 77.863 -14.525 56.671 L -14.525 30.955 C -14.525 10.239 -10 0 0 0 M -.477 -21.668 C -33.574 -21.668 -48.574 5.953 -48.574 39.051 L -48.574 49.051 C -48.574 82.149 -33.574 109.532 0 109.532 C 33.574 109.532 48.338 82.149 48.338 49.051 L 48.338 39.051 C 48.338 5.953 33.574 -21.668 -.477 -21.668 " fill="#231f20"/>
<path transform="matrix(2.7777777,0,0,-2.7777777,1002.55276,2673.8426)" d="M 0 0 L 29.527 0 L 30.717 -23.811 L 31.193 -23.811 C 38.813 -5.714 52.623 2.381 65.244 2.381 C 83.34 2.381 90.723 -9.762 90.723 -26.192 L 90.723 -126.438 L 58.576 -126.438 L 58.576 -33.574 C 58.576 -25.001 55.957 -21.192 49.291 -21.192 C 39.766 -21.192 32.385 -32.859 32.385 -48.813 L 32.385 -126.438 L 0 -126.438 Z " fill="#231f20"/>
<path transform="matrix(2.7777777,0,0,-2.7777777,1282.9944,2938.4124)" d="M 0 0 L 21.191 8.334 C 25.717 -9.524 33.336 -14.763 43.336 -14.763 C 52.146 -14.763 56.67 -9.287 56.67 -2.143 C 56.67 6.429 53.1 9.763 36.906 17.382 C 16.906 26.668 4.762 38.336 4.762 60.243 C 4.762 83.102 20.953 97.626 45.479 97.626 C 70.242 97.626 80.959 83.816 84.053 65.005 L 63.576 58.814 C 60.48 73.815 54.289 78.578 45.24 78.578 C 38.813 78.578 33.098 74.529 33.098 66.195 C 33.098 57.147 37.621 53.813 52.146 46.67 C 74.291 35.717 86.436 29.526 86.436 6.191 C 86.436 -19.049 70.48 -33.574 44.051 -33.574 C 16.906 -33.574 5.953 -19.763 0 0 " fill="#231f20"/>
<path transform="matrix(2.7777777,0,0,-2.7777777,1645.4456,2817.3717)" d="M 0 0 L 26.191 0 C 26.191 24.288 22.383 32.383 13.572 32.383 C 3.809 32.383 0 21.43 0 0 M 15.238 -77.149 C -14.049 -77.149 -34.051 -56.195 -34.051 -16.668 L -34.051 -6.191 C -33.813 27.145 -17.383 54.052 13.572 54.052 C 41.193 54.052 58.338 34.289 58.338 -9.048 L 58.338 -15.954 L 0 -15.954 L 0 -16.668 C 0 -41.908 4.523 -55.242 18.096 -55.242 C 29.287 -55.242 33.813 -45.479 35.955 -29.764 L 57.861 -36.908 C 54.051 -59.767 41.67 -77.149 15.238 -77.149 " fill="#231f20"/>
<path transform="matrix(2.7777777,0,0,-2.7777777,1849.151,2673.8426)" d="M 0 0 L 29.527 0 L 30.955 -27.383 L 31.908 -27.383 C 35.955 -6.191 44.527 2.381 55.006 2.381 C 58.576 2.381 61.672 1.191 63.576 0 L 63.576 -33.574 C 60.957 -32.383 58.338 -31.669 53.814 -31.669 C 42.861 -31.669 32.385 -41.908 32.385 -63.338 L 32.385 -126.438 L 0 -126.438 Z " fill="#231f20"/>
<path transform="matrix(2.7777777,0,0,-2.7777777,2043.5955,2673.8426)" d="M 0 0 L 32.621 0 L 45.955 -59.528 L 50.48 -82.387 L 51.195 -82.387 L 55.957 -59.528 L 70.482 0 L 97.15 0 L 62.387 -127.152 L 33.813 -127.152 Z " fill="#231f20"/>
<path transform="matrix(2.7777777,0,0,-2.7777777,2464.917,2917.2469)" d="M 0 0 L 0 22.383 C -3.334 20.478 -6.191 18.811 -11.906 15.239 C -18.098 10.953 -21.906 6.191 -21.906 -5.715 C -21.906 -16.43 -18.572 -20.716 -11.906 -20.716 C -3.334 -20.716 0 -11.43 0 0 M -52.623 -9.524 C -52.623 13.334 -37.621 21.192 -25.002 28.097 C -15.953 33.336 -6.668 37.622 0 41.193 L 0 54.052 C 0 64.053 -3.572 68.815 -11.43 68.815 C -20.717 68.815 -24.287 60.719 -25.717 46.67 L -49.766 49.527 C -48.1 77.149 -30.955 90.007 -6.906 90.007 C 19.764 90.007 32.145 78.578 32.145 53.813 L 32.145 -6.191 C 32.145 -13.334 33.098 -17.382 35.479 -19.287 C 37.383 -21.192 40.24 -21.668 43.336 -21.668 L 43.336 -37.622 C 40.717 -39.765 32.383 -41.194 27.383 -41.194 C 14.287 -41.194 5 -34.526 4.047 -17.382 L 2.857 -17.382 C -1.904 -32.86 -11.191 -41.194 -25.479 -41.194 C -42.146 -41.194 -52.623 -30.24 -52.623 -9.524 " fill="#231f20"/>
<path transform="matrix(2.7777777,0,0,-2.7777777,2669.957,3015.1378)" d="M 0 0 C -7.619 3.572 -12.619 10.239 -12.619 25.716 L -12.619 99.77 L -26.193 99.77 L -26.193 122.866 L -12.383 122.866 L -12.383 159.536 L 19.525 159.536 L 19.525 122.866 L 39.527 122.866 L 39.527 99.77 L 19.525 99.77 L 19.525 34.05 C 19.525 28.097 20.953 24.288 24.287 22.383 C 26.43 20.716 29.525 20.24 33.336 20.24 L 40.479 20.24 L 40.479 -3.572 L 21.191 -3.572 C 10.953 -3.572 4.762 -2.381 0 0 " fill="#231f20"/>
<path transform="matrix(2.7777777,0,0,-2.7777777,2946.4278,2971.4844)" d="M 0 0 C 10 0 14.287 10.239 14.287 30.955 L 14.287 56.671 C 14.287 77.863 10 87.864 0 87.864 C -10 87.864 -14.525 77.863 -14.525 56.671 L -14.525 30.955 C -14.525 10.239 -10 0 0 0 M -.477 -21.668 C -33.574 -21.668 -48.574 5.953 -48.574 39.051 L -48.574 49.051 C -48.574 82.149 -33.574 109.532 0 109.532 C 33.574 109.532 48.338 82.149 48.338 49.051 L 48.338 39.051 C 48.338 5.953 33.574 -21.668 -.477 -21.668 " fill="#231f20"/>
<path transform="matrix(2.7777777,0,0,-2.7777777,0,5389.555)" d="M 1124.526 977.657 L 1156.911 977.657 L 1156.911 851.219 L 1124.526 851.219 Z M 1124.526 1021.946 L 1156.911 1021.946 L 1156.911 991.467 L 1124.526 991.467 Z " fill="#231f20"/>
<path transform="matrix(2.7777777,0,0,-2.7777777,3265.221,2673.8426)" d="M 0 0 L 29.527 0 L 30.955 -27.383 L 31.908 -27.383 C 35.955 -6.191 44.527 2.381 55.006 2.381 C 58.576 2.381 61.672 1.191 63.576 0 L 63.576 -33.574 C 60.957 -32.383 58.338 -31.669 53.814 -31.669 C 42.861 -31.669 32.385 -41.908 32.385 -63.338 L 32.385 -126.438 L 0 -126.438 Z " fill="#231f20"/>
<path transform="matrix(2.7777777,0,0,-2.7777777,3556.904,2817.3717)" d="M 0 0 L 26.193 0 C 26.193 24.288 22.383 32.383 13.572 32.383 C 3.811 32.383 0 21.43 0 0 M 15.24 -77.149 C -14.049 -77.149 -34.049 -56.195 -34.049 -16.668 L -34.049 -6.191 C -33.813 27.145 -17.383 54.052 13.572 54.052 C 41.193 54.052 58.338 34.289 58.338 -9.048 L 58.338 -15.954 L 0 -15.954 L 0 -16.668 C 0 -41.908 4.525 -55.242 18.098 -55.242 C 29.289 -55.242 33.813 -45.479 35.955 -29.764 L 57.861 -36.908 C 54.053 -59.767 41.67 -77.149 15.24 -77.149 " fill="#231f20"/>
<path transform="matrix(2.7777777,0,0,-2.7777777,427.1297,3286.9774)" d="M 0 0 L -34.049 0 L -34.049 26.669 L 69.053 26.669 L 69.053 0 L 35.004 0 L 35.004 -143.82 L 0 -143.82 Z " fill="#231f20"/>
<path transform="matrix(2.7777777,0,0,-2.7777777,650.02468,3195.6998)" d="M 0 0 L 31.432 0 L 31.432 -73.101 L 31.906 -73.101 C 39.051 -56.195 52.623 -47.861 65.242 -47.861 C 83.34 -47.861 90.721 -60.004 90.721 -76.434 L 90.721 -176.68 L 58.576 -176.68 L 58.576 -83.816 C 58.576 -75.244 55.957 -71.434 49.289 -71.434 C 39.766 -71.434 32.383 -83.339 32.383 -98.817 L 32.383 -176.68 L 0 -176.68 Z " fill="#231f20"/>
<path transform="matrix(2.7777777,0,0,-2.7777777,1038.268,3478.79)" d="M 0 0 L 26.193 0 C 26.193 24.287 22.383 32.384 13.572 32.384 C 3.811 32.384 0 21.431 0 0 M 15.24 -77.148 C -14.049 -77.148 -34.049 -56.194 -34.049 -16.668 L -34.049 -6.191 C -33.813 27.145 -17.383 54.052 13.572 54.052 C 41.193 54.052 58.338 34.288 58.338 -9.048 L 58.338 -15.953 L 0 -15.953 L 0 -16.668 C 0 -41.908 4.525 -55.242 18.098 -55.242 C 29.289 -55.242 33.813 -45.479 35.955 -29.764 L 57.861 -36.907 C 54.053 -59.767 41.67 -77.148 15.24 -77.148 " fill="#231f20"/>
<path transform="matrix(2.7777777,0,0,-2.7777777,1339.201,3212.896)" d="M 0 0 L 34.287 0 L 34.287 -70.006 L 72.148 -70.006 L 72.148 0 L 106.436 0 L 106.436 -170.49 L 72.148 -170.49 L 72.148 -97.151 L 34.287 -97.151 L 34.287 -170.49 L 0 -170.49 Z " fill="#231f20"/>
<path transform="matrix(2.7777777,0,0,-2.7777777,1826.0067,3578.6658)" d="M 0 0 L 0 22.383 C -3.332 20.478 -6.189 18.811 -11.904 15.239 C -18.096 10.953 -21.906 6.191 -21.906 -5.715 C -21.906 -16.43 -18.572 -20.716 -11.904 -20.716 C -3.332 -20.716 0 -11.43 0 0 M -52.623 -9.524 C -52.623 13.334 -37.621 21.192 -25.002 28.098 C -15.953 33.336 -6.666 37.622 0 41.193 L 0 54.052 C 0 64.053 -3.57 68.814 -11.428 68.814 C -20.715 68.814 -24.287 60.719 -25.715 46.67 L -49.766 49.527 C -48.098 77.148 -30.953 90.007 -6.904 90.007 C 19.764 90.007 32.146 78.577 32.146 53.813 L 32.146 -6.191 C 32.146 -13.334 33.1 -17.382 35.48 -19.287 C 37.385 -21.192 40.242 -21.668 43.338 -21.668 L 43.338 -37.622 C 40.719 -39.765 32.385 -41.193 27.385 -41.193 C 14.287 -41.193 5.002 -34.526 4.049 -17.382 L 2.857 -17.382 C -1.904 -32.859 -11.191 -41.193 -25.477 -41.193 C -42.145 -41.193 -52.623 -30.24 -52.623 -9.524 " fill="#231f20"/>
<path transform="matrix(2.7777777,0,0,-2.7777777,2127.6068,3467.5465)" d="M 0 0 L 0 5.477 C 0 22.621 -4.523 29.526 -12.857 29.526 C -21.191 29.526 -25.715 22.621 -25.715 5.477 L -25.715 0 C -25.715 -16.668 -21.191 -24.05 -12.857 -24.05 C -4.523 -24.05 0 -16.668 0 0 M -62.146 -91.912 L -37.383 -87.863 C -35.955 -98.341 -28.334 -104.77 -11.191 -104.77 C 7.383 -104.77 10.953 -98.341 10.953 -92.626 C 10.953 -86.435 8.096 -83.578 -1.904 -83.578 L -22.383 -83.578 C -42.859 -83.578 -54.527 -76.435 -54.527 -59.528 C -54.527 -47.623 -46.432 -40.955 -38.574 -35.717 L -38.574 -35.003 C -47.859 -28.335 -54.766 -15.001 -54.766 .477 L -54.766 5.001 C -54.766 32.146 -38.813 50.004 -12.857 50.004 C 6.191 50.004 18.574 40.718 23.098 25.24 L 24.289 25.479 C 24.289 45.479 33.813 50.004 38.813 50.004 C 43.814 50.004 46.195 48.813 48.338 46.433 L 47.385 23.097 C 46.195 23.812 43.338 25.24 40.48 25.24 C 32.623 25.24 29.051 19.049 29.051 1.905 L 29.051 .952 C 29.051 -26.192 14.525 -44.527 -12.381 -44.527 C -18.334 -44.527 -23.572 -43.337 -27.859 -41.193 C -30.002 -42.86 -31.906 -45.718 -31.906 -49.051 C -31.906 -53.813 -28.811 -56.671 -21.191 -56.671 L 7.383 -56.671 C 31.432 -56.671 40.48 -67.386 40.48 -85.244 C 40.48 -109.056 21.193 -123.343 -12.143 -123.343 C -39.051 -123.343 -58.338 -115.247 -62.146 -91.912 " fill="#231f20"/>
<path transform="matrix(2.7777777,0,0,-2.7777777,2283.0379,3610.4149)" d="M 0 0 L 0 99.056 L 32.383 99.056 L 32.383 5.953 C 32.383 -1.667 34.766 -6.19 42.385 -6.19 C 50.957 -6.19 57.861 6.43 57.861 24.288 L 57.861 99.056 L 90.008 99.056 L 90.008 -27.383 L 61.195 -27.383 L 59.529 -4.286 L 58.814 -4.286 C 50.48 -23.812 39.527 -29.764 27.383 -29.764 C 9.049 -29.764 0 -16.906 0 0 " fill="#231f20"/>
<path transform="matrix(2.7777777,0,0,-2.7777777,2670.63,3478.79)" d="M 0 0 L 26.191 0 C 26.191 24.287 22.383 32.384 13.572 32.384 C 3.809 32.384 0 21.431 0 0 M 15.238 -77.148 C -14.049 -77.148 -34.051 -56.194 -34.051 -16.668 L -34.051 -6.191 C -33.813 27.145 -17.383 54.052 13.572 54.052 C 41.193 54.052 58.338 34.288 58.338 -9.048 L 58.338 -15.953 L 0 -15.953 L 0 -16.668 C 0 -41.908 4.523 -55.242 18.096 -55.242 C 29.287 -55.242 33.813 -45.479 35.955 -29.764 L 57.861 -36.907 C 54.051 -59.767 41.67 -77.148 15.238 -77.148 " fill="#231f20"/>
</g>
</g>
</g>
</svg>
